<mxfile host="app.diagrams.net" modified="2023-12-18T12:16:21.792Z" agent="Mozilla/5.0 (Windows NT 10.0; Win64; x64) AppleWebKit/537.36 (KHTML, like Gecko) Chrome/120.0.0.0 Safari/537.36" etag="ILLY5vNW-JVVIIxZYwo7" version="22.1.11" type="github">
  <diagram id="C5RBs43oDa-KdzZeNtuy" name="Page-1">
    <mxGraphModel dx="866" dy="454" grid="1" gridSize="10" guides="1" tooltips="1" connect="1" arrows="1" fold="1" page="1" pageScale="1" pageWidth="850" pageHeight="1100" math="0" shadow="0">
      <root>
        <mxCell id="WIyWlLk6GJQsqaUBKTNV-0" />
        <mxCell id="WIyWlLk6GJQsqaUBKTNV-1" parent="WIyWlLk6GJQsqaUBKTNV-0" />
        <mxCell id="1tqChW0Kw4J-UJkb-zd9-1" value="" style="edgeStyle=orthogonalEdgeStyle;rounded=0;orthogonalLoop=1;jettySize=auto;html=1;fontSize=15;entryX=0.5;entryY=0;entryDx=0;entryDy=0;" parent="WIyWlLk6GJQsqaUBKTNV-1" source="I_6UBjQvkkelprc3xHfG-0" target="uNx0s2i8PdsAUFH0W3sC-0" edge="1">
          <mxGeometry relative="1" as="geometry">
            <mxPoint x="280" y="360" as="targetPoint" />
          </mxGeometry>
        </mxCell>
        <mxCell id="uNx0s2i8PdsAUFH0W3sC-3" value="" style="edgeStyle=orthogonalEdgeStyle;rounded=0;orthogonalLoop=1;jettySize=auto;html=1;" edge="1" parent="WIyWlLk6GJQsqaUBKTNV-1" source="I_6UBjQvkkelprc3xHfG-0" target="uNx0s2i8PdsAUFH0W3sC-1">
          <mxGeometry relative="1" as="geometry" />
        </mxCell>
        <mxCell id="uNx0s2i8PdsAUFH0W3sC-4" value="" style="edgeStyle=orthogonalEdgeStyle;rounded=0;orthogonalLoop=1;jettySize=auto;html=1;" edge="1" parent="WIyWlLk6GJQsqaUBKTNV-1" source="I_6UBjQvkkelprc3xHfG-0" target="uNx0s2i8PdsAUFH0W3sC-2">
          <mxGeometry relative="1" as="geometry" />
        </mxCell>
        <mxCell id="I_6UBjQvkkelprc3xHfG-0" value="Quadratic Formula" style="rounded=0;whiteSpace=wrap;html=1;fontSize=15;" parent="WIyWlLk6GJQsqaUBKTNV-1" vertex="1">
          <mxGeometry x="365" y="240" width="120" height="60" as="geometry" />
        </mxCell>
        <mxCell id="uNx0s2i8PdsAUFH0W3sC-0" value="User Inputs" style="rounded=0;whiteSpace=wrap;html=1;" vertex="1" parent="WIyWlLk6GJQsqaUBKTNV-1">
          <mxGeometry x="220" y="370" width="120" height="60" as="geometry" />
        </mxCell>
        <mxCell id="uNx0s2i8PdsAUFH0W3sC-1" value="Calculate for the roots" style="rounded=0;whiteSpace=wrap;html=1;" vertex="1" parent="WIyWlLk6GJQsqaUBKTNV-1">
          <mxGeometry x="365" y="370" width="120" height="60" as="geometry" />
        </mxCell>
        <mxCell id="uNx0s2i8PdsAUFH0W3sC-2" value="Display Roots" style="rounded=0;whiteSpace=wrap;html=1;" vertex="1" parent="WIyWlLk6GJQsqaUBKTNV-1">
          <mxGeometry x="510" y="370" width="120" height="60" as="geometry" />
        </mxCell>
      </root>
    </mxGraphModel>
  </diagram>
</mxfile>
